<?xml version="1.0" encoding="utf-8"?>
<!-- Generator: Adobe Illustrator 23.0.1, SVG Export Plug-In . SVG Version: 6.00 Build 0)  -->
<svg xmlns="http://www.w3.org/2000/svg" xmlns:xlink="http://www.w3.org/1999/xlink" version="1.1" id="Capa_1" x="0px" y="0px" viewBox="0 0 572.6 151.3" style="enable-background:new 0 0 572.6 151.3;" xml:space="preserve">
<style type="text/css">
	.st0{fill-rule:evenodd;clip-rule:evenodd;fill:#00001C;}
</style>
<path id="powered-by" class="st0" d="M219.9,36.9V10.4h3.1v3.3c1.1-1.9,3.8-3.6,6.7-3.6c5.2,0,9,3.8,9,9.9v0.3c0,6-3.5,10.2-9,10.2  c-3.2,0-5.5-1.6-6.7-3.6v10.1H219.9z M229.4,27.8c3.9,0,6-2.6,6-7.4v-0.3c0-5-2.7-7.5-6.1-7.5c-3.6,0-6.4,2.4-6.4,7.5v0.3  C222.9,25.5,225.6,27.8,229.4,27.8z M251.7,27.8c4,0,6.4-3,6.4-7.4v-0.3c0-4.6-2.5-7.5-6.4-7.5c-4,0-6.4,2.9-6.4,7.5v0.3  C245.3,24.9,247.7,27.8,251.7,27.8z M251.7,30.4c-5.6,0-9.6-4.3-9.6-10v-0.3c0-5.9,4.1-10,9.7-10c5.6,0,9.7,4.1,9.7,10v0.3  C261.4,26.3,257.3,30.4,251.7,30.4z M269.8,30.1l-6.1-19.7h3.4l4.6,15.8l4.8-15.8h2.7l4.5,15.8l4.6-15.8h3.2l-6.1,19.7h-3.5  l-4.1-14.7l-4.6,14.7H269.8z M303.4,30.4c-5.6,0-9.5-3.9-9.5-10v-0.3c0-5.9,3.8-10.1,9.2-10.1c4.6,0,8.8,2.7,8.8,9.8v1h-14.8  c0.2,4.5,2.3,7,6.3,7c3,0,4.8-1.1,5.2-3.4h3.1C311.1,28.4,307.9,30.4,303.4,30.4z M297.2,18.3h11.5c-0.3-4.1-2.4-5.7-5.6-5.7  C299.9,12.7,297.8,14.8,297.2,18.3z M316.7,30.1V10.4h3.1v3.5c1.2-2.2,2.9-3.8,6.5-3.9V13c-4,0.2-6.5,1.4-6.5,6.3v10.8H316.7z   M338.4,30.4c-5.6,0-9.5-3.9-9.5-10v-0.3c0-5.9,3.8-10.1,9.2-10.1c4.6,0,8.8,2.7,8.8,9.8v1h-14.8c0.2,4.5,2.3,7,6.3,7  c3,0,4.8-1.1,5.2-3.4h3.1C346.1,28.4,342.8,30.4,338.4,30.4z M332.2,18.3h11.5c-0.3-4.1-2.4-5.7-5.6-5.7  C334.9,12.7,332.7,14.8,332.2,18.3z M359.1,30.4c-5.2,0-8.9-3.6-8.9-9.8v-0.3c0-6,3.8-10.3,9.2-10.3c3.3,0,5.3,1.6,6.4,3.5V1h3.1  v29.1h-3.1v-3.4C364.7,28.6,362,30.4,359.1,30.4z M359.4,27.8c3.6,0,6.5-2.4,6.5-7.5v-0.3c0-5-2.4-7.4-6.2-7.4  c-3.9,0-6.2,2.7-6.2,7.5v0.3C353.5,25.5,356.1,27.8,359.4,27.8z M395,30.4c-3.2,0-5.5-1.6-6.7-3.6v3.2h-3.1V1h3.1v12.7  c1.1-1.9,3.8-3.6,6.7-3.6c5.2,0,9,3.8,9,9.9v0.3C404,26.3,400.5,30.4,395,30.4z M394.7,27.8c3.9,0,6-2.6,6-7.4v-0.3  c0-5-2.7-7.5-6.1-7.5c-3.6,0-6.4,2.4-6.4,7.5v0.3C388.3,25.5,390.9,27.8,394.7,27.8z M410.2,36.9l3.7-8.9l-7.7-17.6h3.3l6,14.1  l5.5-14.1h3.2l-10.9,26.5H410.2z"/>
<polygon id="_x31_" class="st0" points="5.5,66.9 0,66.9 0,111.9 5.5,111.9 10.9,111.9 16.4,111.9 16.4,66.9 10.9,66.9 "/>
<polygon id="_x32_" class="st0" points="30.2,50.8 25,50.8 25,99.7 30.2,99.7 30.2,148.7 35.4,148.7 35.4,99.7 40.6,99.7 40.6,50.8   35.4,50.8 "/>
<polygon id="_x33_" class="st0" points="58.6,30.1 53.2,30.1 53.2,79.2 58.6,79.2 58.6,128.2 64.1,128.2 64.1,79.2 69.5,79.2   69.5,30.1 64.1,30.1 "/>
<polygon id="_x34_" class="st0" points="85.9,111.9 90,111.9 90,66.9 85.9,66.9 "/>
<path id="B" class="st0" d="M163.7,112.3c-12,0-20.3-10.4-20.3-22.6c0-11.8,8.6-22.8,20.3-22.8s20.1,11.4,20.1,23  C183.8,101.7,175.4,112.3,163.7,112.3 M164,50.9h-0.3c-7.5,0-14.8,2.4-21,6.9V30.1h-16v58.6h0.1v1c0,21.2,16.7,38.6,36.9,38.6  c21,0,36.7-16.8,36.7-38.8C200.5,68.3,184.2,51,164,50.9"/>
<path id="Q" class="st0" d="M249.6,113c-12,0-20.4-10.6-20.4-23c0-12,8.6-23.2,20.4-23.2c11.7,0,20.1,11.6,20.1,23.4  C269.7,102.3,261.3,113,249.6,113 M249.6,50.5c-20.4,0.1-37,17.7-36.9,39.5c0,21.5,16.7,39.2,36.9,39.2c7.4,0.1,14.6-2.2,20.8-6.6  v26h15.9V89C286,67.7,269.7,50.5,249.6,50.5"/>
<path id="U" class="st0" d="M351.4,88.1L351.4,88.1c0.1,12.2-8.6,23.7-20.3,23.7c-11.7,0-20.1-11.8-20.1-23.8V50.5h-16.6v36.8v1  c-0.1,21.9,16.2,39.8,36.4,40h0.3c20.4-0.1,37-18,36.9-40.2l0-37.5h-16.7V88.1z"/>
<path id="A" class="st0" d="M409.1,112.2c-12,0-20.4-10.5-20.4-22.7c0-11.8,8.6-23,20.4-23s20.1,11.4,20.1,23.1  C429.2,101.6,420.8,112.2,409.1,112.2 M409.4,50.5h-0.3c-20.4,0.1-37,17.5-36.9,39c0,21.3,16.7,38.7,36.9,38.7  c7.4,0.1,14.5-2.1,20.7-6.4v4.1h16V90.2v-1C445.9,68,429.6,50.7,409.4,50.5"/>
<polygon id="T" class="st0" points="481.4,30.1 465.7,30.1 465.7,53.9 458.1,53.9 458.1,69.8 465.7,69.8 465.7,128.2 481.4,128.2   481.4,69.8 490.8,69.8 490.8,53.9 481.4,53.9 "/>
<path id="E" class="st0" d="M516.3,83.2c2.4-10.3,9.7-16.7,20-16.7c10.3,0,17.5,6.1,19.1,16.7H516.3z M572.6,88.5  c0-21.1-15.9-37.9-36.5-37.9c-21.4,0-37.1,17.3-37.1,39.1c0,21.6,16.2,38.6,37.3,38.6c15,0,29.5-10.5,34.1-25.3h-17.8  c-3.4,6.4-9.4,9.3-16.3,9.3c-6.9,0-13.5-3.7-17.2-9.7c-1.1-1.5-1.9-3.4-2.3-5.2h54.8C572.2,94.4,572.6,91.4,572.6,88.5z"/>
</svg>
